<svg width="42" height="30" viewBox="0 0 42 30" fill="none" xmlns="http://www.w3.org/2000/svg">
<path d="M40.9555 23.5208L38.6847 7.56246C38.1014 3.45829 34.5808 0.416626 30.4352 0.416626H11.5613C7.41568 0.416626 3.89505 3.45829 3.31175 7.56246L1.04105 23.5208C0.582739 26.7291 3.06177 29.5833 6.29075 29.5833C7.70734 29.5833 9.04059 29.0208 10.0405 28.0208L14.7486 23.3333H27.2479L31.9351 28.0208C32.9351 29.0208 34.2892 29.5833 35.6849 29.5833C38.9347 29.5833 41.4138 26.7291 40.9555 23.5208ZM18.915 12.9166H14.7486V17.0833H12.6654V12.9166H8.49896V10.8333H12.6654V6.66663H14.7486V10.8333H18.915V12.9166ZM27.2479 10.8333C26.1021 10.8333 25.1647 9.89579 25.1647 8.74996C25.1647 7.60413 26.1021 6.66663 27.2479 6.66663C28.3937 6.66663 29.3311 7.60413 29.3311 8.74996C29.3311 9.89579 28.3937 10.8333 27.2479 10.8333ZM31.4143 17.0833C30.2686 17.0833 29.3311 16.1458 29.3311 15C29.3311 13.8541 30.2686 12.9166 31.4143 12.9166C32.5601 12.9166 33.4975 13.8541 33.4975 15C33.4975 16.1458 32.5601 17.0833 31.4143 17.0833Z" fill="#2A7AE4"/>
</svg>
